<?xml version="1.0" encoding="utf-8"?>
<!-- Generator: Adobe Illustrator 16.0.0, SVG Export Plug-In . SVG Version: 6.00 Build 0)  -->
<!DOCTYPE svg PUBLIC "-//W3C//DTD SVG 1.1//EN" "http://www.w3.org/Graphics/SVG/1.1/DTD/svg11.dtd">
<svg version="1.1" id="Layer_1" xmlns="http://www.w3.org/2000/svg" xmlns:xlink="http://www.w3.org/1999/xlink" x="0px" y="0px"
	 width="457.987px" height="92px" viewBox="0 0 457.987 92" enable-background="new 0 0 457.987 92" xml:space="preserve">
<rect y="5.644" fill="none" width="293.22" height="124.576"/>
<text transform="matrix(1 0 0 1 5.0508 89.1807)"><tspan x="0" y="0" fill="#E4302F" font-family="'HelveticaNeue-CondensedBold'" font-size="117">VID</tspan><tspan x="158.065" y="0" font-family="'HelveticaNeue-CondensedBold'" font-size="117">OR</tspan></text>
<g>
	<rect x="338.22" y="23.667" fill="none" width="119.768" height="74.333"/>
	<text transform="matrix(1 0 0 1 345.2393 88.6406)" fill="#E4302F" font-family="'HelveticaNeue-CondensedBold'" font-size="91">ma</text>
</g>
<g>
	<defs>
		<rect id="SVGID_1_" x="299.516" y="5.286" width="43" height="48"/>
	</defs>
	<clipPath id="SVGID_2_">
		<use xlink:href="#SVGID_1_"  overflow="visible"/>
	</clipPath>
	<path clip-path="url(#SVGID_2_)" d="M302.902,5.286c-2.028,0-3.387,1.46-3.387,3.637v40.726c0,2.177,1.358,3.638,3.387,3.638
		c1.105,0,1.851-0.302,2.625-0.746l34.758-19.896c0.551-0.315,2.23-1.28,2.23-3.358s-1.68-3.048-2.23-3.363l-2.566-1.477
		c-2.301-7.594-9.359-13.141-17.703-13.141c-1.496,0-2.945,0.199-4.34,0.535l-10.145-5.809
		C304.753,5.583,304.008,5.286,302.902,5.286L302.902,5.286z M320.016,13.306c9.125,0,16.5,7.375,16.5,16.5
		c0,0.973-0.105,1.921-0.266,2.843l-7.051,4.039c1.504-1.987,2.316-4.409,2.316-6.901c0-6.352-5.148-11.5-11.5-11.5
		c-6.353,0-11.5,5.148-11.5,11.5c0,6.352,5.147,11.5,11.5,11.5c0.434,0,0.858-0.027,1.28-0.074l-7.069,4.047
		c-6.254-2.344-10.711-8.371-10.711-15.453C303.516,20.681,310.891,13.306,320.016,13.306L320.016,13.306z M320.516,23.286h4v2.874
		h-2.5v6.501c0,1.461-1.392,2.625-2.875,2.625c-1.457,0-2.625-1.177-2.625-2.664c-0.004-0.707,0.276-1.383,0.772-1.883
		c0.5-0.5,1.176-0.781,1.883-0.777c0.485,0,0.946,0.14,1.345,0.367V23.286z"/>
	
		<ellipse clip-path="url(#SVGID_2_)" fill="#E4302F" stroke="#FFFFFF" stroke-width="0.5" stroke-miterlimit="10" cx="320.025" cy="29.787" rx="11.51" ry="11.499"/>
</g>
<line fill="none" stroke="#FFFFFF" stroke-width="2" stroke-miterlimit="10" x1="318.481" y1="25.088" x2="318.481" y2="34.139"/>
<line fill="none" stroke="#FFFFFF" stroke-width="2" stroke-miterlimit="10" x1="322.103" y1="25.118" x2="322.103" y2="34.169"/>
</svg>
